<?xml version="1.0" standalone="no"?>
<!DOCTYPE svg PUBLIC "-//W3C//DTD SVG 20010904//EN"
 "http://www.w3.org/TR/2001/REC-SVG-20010904/DTD/svg10.dtd">
<svg version="1.0" xmlns="http://www.w3.org/2000/svg"
 width="100pt" height="100pt" viewBox="0 0 1585.000000 2227.000000"
 preserveAspectRatio="xMidYMid meet">

<g transform="translate(0.000000,2227.000000) scale(0.100000,-0.100000)"
fill="blue" stroke="none">
<path d="M7859 22142 c-53 -135 -45 -129 -191 -131 -49 0 -88 -4 -88 -8 0 -21
43 -68 99 -109 34 -25 64 -51 67 -59 3 -7 -8 -83 -24 -169 l-29 -155 66 51
c36 29 87 69 113 91 59 47 72 45 136 -30 45 -53 127 -112 138 -100 4 3 -8 72
-26 152 -17 81 -29 153 -26 160 3 8 34 33 69 56 59 39 97 81 97 108 0 7 -36
11 -108 11 -107 0 -108 0 -124 28 -8 15 -25 58 -38 95 -20 61 -61 127 -78 127
-4 0 -28 -53 -53 -118z"/>
<path d="M8483 21838 c-7 -13 -13 -44 -16 -69 -2 -25 -12 -57 -21 -71 -17 -27
-398 -334 -490 -396 l-50 -33 -115 115 c-84 83 -146 133 -226 184 -147 94
-159 107 -180 195 -10 39 -21 76 -25 80 -4 5 -16 -15 -25 -43 -21 -62 -16
-130 13 -187 18 -34 209 -253 388 -445 92 -99 94 -108 94 -467 -1 -339 -15
-821 -30 -1014 -6 -73 -26 -276 -45 -452 -40 -374 -141 -1447 -153 -1618 -9
-134 -18 -120 91 -132 60 -7 91 -26 83 -54 -2 -9 -7 -31 -11 -48 l-7 -33 -142
0 c-107 0 -147 -4 -162 -14 -17 -13 -19 -29 -22 -152 -4 -155 0 -164 65 -164
52 0 109 -34 137 -82 13 -24 38 -90 55 -148 17 -58 42 -139 56 -180 31 -91 34
-140 9 -174 -18 -24 -253 -237 -477 -434 -76 -67 -116 -110 -135 -146 l-27
-51 -5 -537 c-3 -295 -9 -540 -13 -545 -5 -4 -78 -10 -162 -13 -128 -4 -157
-8 -171 -22 -16 -16 -19 -92 -33 -890 -8 -481 -12 -882 -8 -891 7 -17 8 -17
38 0 16 10 276 190 577 401 300 210 556 385 568 388 12 3 32 0 44 -6 12 -7
269 -184 570 -395 301 -210 558 -385 570 -388 13 -3 23 0 27 9 7 20 -27 1701
-36 1744 -8 43 -24 47 -172 49 -141 1 -165 10 -174 64 -4 23 -6 262 -4 532 l4
490 -25 50 c-17 32 -57 77 -115 129 -50 45 -188 168 -308 275 -129 116 -220
204 -223 218 -6 24 59 242 118 395 34 90 62 118 143 143 80 26 85 37 85 181 0
170 3 167 -174 174 -121 5 -138 8 -157 26 -20 20 -20 23 -5 52 17 34 62 52
128 52 36 0 37 1 43 43 7 44 -67 845 -135 1472 -82 752 -95 981 -95 1630 0
476 -15 421 169 618 351 377 331 348 330 482 0 50 -5 98 -10 108 -9 16 -11 16
-21 -5z"/>
<path d="M9227 13560 c-6 -24 232 -849 263 -910 24 -46 79 -96 207 -185 104
-72 161 -101 173 -88 4 4 -130 262 -296 573 -378 704 -340 637 -347 610z"/>
<path d="M6587 13538 c-34 -55 -607 -1146 -607 -1156 0 -29 28 -17 122 51 57
40 128 90 159 110 94 62 99 73 228 529 65 227 121 430 125 451 8 42 -6 50 -27
15z"/>
<path d="M7480 13132 c-102 -65 -1428 -1017 -1462 -1050 -72 -69 -66 311 -70
-4252 l-3 -4125 776 -3 777 -2 6 67 c13 150 46 5967 46 8098 -1 983 -3 1255
-13 1273 l-13 22 -44 -28z"/>
<path d="M8304 13132 c-29 -100 -2 -8096 32 -9204 l7 -217 46 -8 c69 -12 1278
-8 1404 5 60 6 111 13 114 15 2 3 1 1861 -4 4129 l-8 4123 -27 56 c-24 47 -42
65 -125 126 -533 382 -1385 984 -1405 992 -23 9 -27 7 -34 -17z"/>
<path d="M1093 10283 l-33 -4 0 -3242 c0 -1783 3 -3266 6 -3295 l7 -52 957 0
958 0 6 123 c3 67 7 1390 8 2939 2 2299 1 2819 -10 2830 -10 10 -98 14 -385
18 -205 3 -380 9 -389 14 -31 15 -38 76 -38 357 0 268 -1 276 -21 295 -20 18
-44 19 -528 20 -278 1 -521 -1 -538 -3z"/>
<path d="M13723 10283 c-57 -7 -58 -8 -63 -349 -3 -172 -9 -316 -13 -321 -5
-4 -165 -9 -355 -9 -191 -1 -368 -5 -394 -9 l-47 -7 -8 -57 c-12 -87 -8 -4297
5 -5011 7 -344 15 -671 19 -727 l6 -103 906 0 c498 0 930 3 959 6 l52 7 -2
3274 -3 3275 -24 19 c-22 18 -44 19 -515 17 -270 0 -505 -3 -523 -5z"/>
<path d="M52 9440 c-12 -5 -28 -22 -34 -37 -10 -22 -13 -634 -16 -2683 -2
-1460 -1 -2737 3 -2837 l7 -183 262 0 263 0 6 2818 c4 1559 3 2836 -2 2860 -5
24 -14 49 -20 55 -15 15 -435 21 -469 7z"/>
<path d="M15330 9430 c-20 -20 -20 -33 -20 -2852 0 -1558 3 -2843 6 -2855 l6
-23 259 0 259 0 0 2834 c0 2069 -3 2842 -11 2865 -7 19 -22 36 -36 42 -13 5
-119 9 -234 9 -196 0 -210 -1 -229 -20z"/>
<path d="M3487 7093 c-4 -3 -7 -768 -7 -1700 l0 -1693 865 0 865 0 2 1663 c2
914 0 1673 -3 1687 -11 49 -15 49 -895 49 -451 1 -824 -2 -827 -6z"/>
<path d="M10671 7087 c-15 -7 -28 -26 -33 -45 -11 -42 4 -3328 15 -3339 13
-12 1630 -16 1676 -3 l38 10 6 662 c4 364 7 1123 7 1688 l0 1028 -31 6 c-17 3
-397 6 -843 6 -624 0 -817 -3 -835 -13z"/>
<path d="M5565 3040 c-27 -5 -241 -9 -475 -9 -234 -1 -430 -5 -435 -9 -7 -4
-10 -202 -10 -564 l0 -558 518 0 517 0 0 111 c0 102 -1 110 -18 105 -45 -15
-326 -24 -539 -19 l-233 6 0 142 0 142 83 6 c181 15 307 6 415 -28 l22 -7 0
129 0 129 -72 -18 c-77 -20 -269 -26 -389 -12 l-59 7 0 129 0 130 390 -3 390
-4 0 103 0 102 -27 -1 c-16 -1 -50 -5 -78 -9z"/>
<path d="M8375 3040 c-33 -4 -247 -8 -475 -9 -228 -1 -425 -4 -437 -7 l-23 -6
0 -559 0 -559 463 0 c254 0 486 -3 515 -6 l52 -7 0 123 0 123 -31 -7 c-143
-28 -600 -41 -709 -19 l-45 9 -3 135 -3 136 98 6 c197 13 319 5 406 -28 16 -7
17 3 17 125 0 122 -1 132 -17 125 -72 -31 -125 -37 -302 -36 -101 1 -187 4
-192 7 -5 3 -9 64 -9 136 l0 130 390 -3 390 -4 0 103 c0 76 -3 102 -12 101 -7
-1 -40 -5 -73 -9z"/>
<path d="M11500 2936 l0 -116 216 0 216 0 -4 -455 -3 -455 134 0 134 0 -7 31
c-24 122 -31 707 -9 842 l6 37 203 0 204 0 0 116 0 116 -27 -7 c-39 -10 -777
-21 -888 -14 -49 4 -109 10 -132 14 l-43 8 0 -117z"/>
<path d="M3512 3025 c-241 -55 -413 -207 -467 -412 -20 -72 -22 -203 -5 -274
62 -262 318 -439 636 -439 123 0 212 17 336 65 89 34 238 111 238 122 0 9
-100 172 -109 177 -4 3 -25 -13 -47 -35 -66 -68 -209 -129 -339 -143 -191 -22
-400 85 -473 242 -23 49 -27 70 -27 147 0 77 4 98 27 147 53 113 152 193 279
223 74 17 204 19 269 4 60 -14 156 -60 212 -104 26 -19 49 -35 52 -35 5 0 136
206 136 214 0 7 -172 60 -280 86 -112 28 -346 36 -438 15z"/>
<path d="M13347 3024 c-258 -55 -448 -221 -497 -432 -15 -65 -15 -181 -1 -245
34 -148 154 -293 302 -366 131 -64 189 -76 369 -76 148 0 159 2 243 32 174 62
297 162 360 294 165 345 -40 706 -447 790 -107 22 -234 23 -329 3z m320 -198
c117 -36 234 -145 269 -250 24 -72 15 -195 -18 -261 -117 -228 -448 -299 -684
-147 -115 75 -168 168 -168 297 0 66 4 90 26 137 52 112 162 199 294 233 72
18 207 13 281 -9z"/>
<path d="M1724 3020 c-19 -8 -20 -12 -11 -96 9 -97 2 -929 -9 -981 l-6 -33
137 0 138 0 -9 108 c-13 155 -10 222 9 258 22 42 78 94 129 120 l41 21 73 -86
c41 -47 112 -131 158 -185 47 -55 102 -130 123 -167 36 -64 40 -67 82 -73 57
-8 196 -7 244 2 l38 7 -275 322 c-152 177 -276 325 -276 330 1 4 26 28 57 53
31 25 153 125 271 223 l214 177 -190 0 -190 0 -33 -52 c-18 -29 -49 -68 -69
-86 -55 -53 -321 -266 -362 -291 l-38 -23 0 225 c0 196 -2 226 -16 231 -23 9
-206 6 -230 -4z"/>
<path d="M8835 3020 c-3 -5 1 -43 10 -84 12 -61 15 -152 15 -468 0 -342 -3
-404 -19 -475 l-18 -83 155 0 c143 0 154 1 147 18 -28 64 -35 126 -33 277 l3
160 240 1 c341 2 461 28 539 114 43 48 66 122 66 215 0 107 -22 171 -80 227
-56 54 -128 81 -262 98 -107 13 -755 13 -763 0z m816 -213 c42 -28 59 -60 59
-113 0 -53 -34 -105 -80 -121 -23 -8 -118 -12 -282 -12 l-248 -1 0 135 0 135
259 0 c252 0 259 -1 292 -23z"/>
<path d="M10553 3018 c-5 -7 -15 -44 -22 -83 -10 -56 -57 -167 -232 -540 -120
-258 -219 -473 -219 -477 0 -5 56 -8 125 -8 l125 0 0 65 c0 36 6 80 14 98 17
43 78 95 118 102 18 4 119 5 224 3 188 -3 191 -3 231 -30 54 -35 84 -99 86
-178 l2 -60 162 0 c90 0 163 3 163 6 0 4 -18 35 -40 70 -60 96 -458 897 -466
939 -4 21 -2 53 4 71 l10 34 -138 0 c-98 0 -140 -4 -147 -12z m201 -474 c42
-95 76 -177 76 -182 0 -6 -19 -14 -43 -17 -57 -9 -293 -2 -303 8 -5 4 33 92
85 194 52 104 96 182 101 177 5 -5 42 -86 84 -180z"/>
<path d="M656 2993 c-3 -16 -8 -46 -12 -68 -8 -48 -40 -120 -273 -618 -100
-213 -181 -389 -181 -392 0 -3 56 -5 125 -5 l125 0 0 65 c0 79 23 131 77 172
36 28 37 28 232 33 108 3 211 2 229 -1 68 -14 111 -80 132 -200 l12 -67 45 -6
c111 -15 263 -1 263 25 0 5 -18 38 -40 72 -22 35 -125 237 -231 450 -156 316
-195 403 -212 477 l-22 90 -132 0 -131 0 -6 -27z m153 -330 c18 -32 57 -114
87 -183 l53 -125 -176 -3 c-97 -1 -178 -1 -180 1 -5 5 169 367 177 367 3 0 21
-26 39 -57z"/>
<path d="M6343 2948 c-10 -60 -42 -139 -178 -433 -246 -530 -275 -594 -275
-600 0 -3 61 -5 135 -5 l135 0 0 50 c0 59 27 145 77 244 20 39 47 100 60 136
35 91 165 370 173 370 17 0 44 -46 110 -190 209 -452 222 -483 227 -546 l6
-62 51 -6 c76 -9 159 -7 214 4 l48 11 -232 462 c-181 361 -236 481 -254 550
l-23 87 -131 0 -131 0 -12 -72z"/>
<path d="M14541 2943 c17 -69 19 -123 19 -474 0 -363 -2 -402 -20 -474 -11
-43 -20 -80 -20 -82 0 -1 70 -3 156 -3 145 0 156 1 149 18 -28 68 -36 117 -36
231 0 69 3 144 7 168 l6 43 233 0 c394 0 513 37 579 180 17 37 21 65 21 150 0
98 -2 109 -30 160 -37 68 -97 114 -181 140 -62 19 -92 20 -484 20 l-417 0 18
-77z m791 -126 c48 -20 71 -58 72 -117 1 -57 -23 -96 -75 -122 -30 -16 -66
-18 -281 -18 l-248 0 0 134 0 135 33 4 c17 3 129 4 247 3 169 -2 223 -6 252
-19z"/>
<path d="M15073 1312 c-29 -18 22 -137 78 -186 49 -41 98 -56 185 -56 110 1
188 49 233 145 35 75 37 93 8 100 -32 8 -60 -6 -88 -46 -33 -46 -105 -89 -151
-89 -58 0 -101 22 -163 84 -53 54 -76 65 -102 48z"/>
<path d="M1785 965 c-96 -25 -234 -97 -290 -152 -116 -114 -160 -273 -120
-428 44 -168 164 -283 360 -345 91 -29 268 -32 364 -6 162 42 285 136 348 264
38 75 38 77 38 197 0 120 0 122 -38 197 -59 121 -156 197 -319 254 -94 33
-253 41 -343 19z m265 -167 c91 -27 185 -100 221 -170 115 -225 -87 -477 -363
-455 -137 11 -234 61 -302 155 -45 61 -60 117 -53 192 18 201 274 344 497 278z"/>
<path d="M3104 965 c-74 -16 -178 -57 -261 -102 l-63 -35 30 -41 c16 -23 40
-55 53 -71 l24 -29 54 41 c79 60 174 93 286 99 112 7 171 -7 219 -52 45 -43
47 -88 4 -132 -43 -44 -96 -55 -243 -51 l-127 3 0 -86 0 -86 43 8 c70 14 219
10 274 -6 68 -20 103 -61 103 -120 0 -90 -73 -134 -237 -142 -173 -10 -285 25
-387 118 l-54 49 -30 -77 c-50 -133 -57 -115 61 -161 157 -60 240 -77 392 -75
227 2 363 56 432 173 57 95 36 192 -63 293 l-45 46 39 43 c22 24 44 52 49 63
36 70 16 168 -44 227 -93 91 -338 140 -509 103z"/>
<path d="M5855 965 c-157 -40 -309 -144 -368 -254 -96 -176 -68 -374 76 -527
104 -112 245 -166 432 -165 249 0 433 98 520 275 162 327 -85 666 -495 682
-73 2 -124 -1 -165 -11z m215 -155 c76 -14 151 -51 204 -100 167 -154 116
-400 -102 -503 -62 -30 -75 -32 -172 -32 -97 0 -110 2 -171 31 -166 79 -243
228 -194 375 36 107 164 207 293 229 68 11 83 11 142 0z"/>
<path d="M10350 974 c-141 -24 -203 -47 -302 -111 -116 -76 -185 -197 -195
-344 -17 -238 167 -448 432 -494 91 -15 259 -5 338 21 184 60 303 168 349 317
16 54 19 87 16 157 -4 77 -9 98 -41 163 -82 166 -270 276 -497 291 -41 2 -86
3 -100 0z m195 -181 c105 -31 200 -114 229 -201 53 -154 -18 -304 -182 -384
-62 -31 -73 -33 -171 -33 -134 0 -196 22 -281 101 -76 71 -104 138 -97 235 15
218 260 356 502 282z"/>
<path d="M11668 970 c-227 -39 -395 -177 -437 -361 -17 -72 -13 -191 8 -258
66 -214 260 -334 536 -334 134 0 204 17 340 82 148 72 143 63 93 146 -22 39
-42 72 -44 74 -2 2 -31 -18 -66 -44 -35 -26 -82 -56 -106 -66 -99 -43 -270
-49 -375 -13 -61 21 -141 94 -174 158 -20 39 -27 70 -31 132 -4 73 -1 88 23
143 57 126 176 191 348 191 80 0 150 -19 259 -69 64 -29 89 -36 96 -28 17 22
82 145 82 155 0 12 -194 69 -297 87 -85 16 -181 17 -255 5z"/>
<path d="M12470 885 l0 -96 53 8 c79 12 259 8 285 -6 l22 -12 0 -379 0 -380
99 0 99 0 0 379 c0 209 3 385 7 390 4 7 69 11 181 11 l174 0 0 90 0 90 -460 0
-460 0 0 -95z"/>
<path d="M160 494 l0 -476 358 4 c340 4 360 5 413 26 207 82 239 286 67 420
-32 25 -55 48 -51 52 5 4 30 24 57 46 57 45 76 84 76 151 -1 102 -66 179 -180
213 -102 31 -215 40 -487 40 l-253 0 0 -476z m665 300 c70 -34 85 -119 28
-164 -24 -19 -39 -20 -254 -20 l-229 0 0 99 c0 95 1 100 23 105 12 2 105 3
207 2 160 -2 191 -5 225 -22z m15 -378 c52 -27 70 -54 70 -108 0 -38 -5 -52
-29 -76 -44 -43 -96 -52 -315 -52 l-196 0 0 119 0 120 48 6 c26 3 54 8 62 10
8 2 85 3 170 1 128 -1 161 -5 190 -20z"/>
<path d="M4048 963 c-17 -4 -18 -35 -18 -469 l0 -464 95 0 95 0 0 296 c0 264
2 295 16 292 9 -2 82 -128 173 -300 l158 -298 163 304 c113 211 167 303 177
299 10 -4 13 -62 13 -299 l0 -294 105 0 105 0 0 465 0 465 -134 0 -133 0 -23
-62 c-12 -35 -34 -85 -47 -113 -42 -85 -215 -385 -222 -385 -6 0 -66 109 -183
332 -32 60 -65 134 -75 165 -12 40 -24 58 -41 64 -23 9 -192 11 -224 2z"/>
<path d="M13650 501 l0 -469 53 -8 c66 -9 691 -6 772 4 l60 7 3 77 3 78 -128
-6 c-70 -2 -142 -6 -159 -8 -42 -6 -345 11 -366 19 -16 6 -18 22 -18 116 l0
109 215 0 215 0 0 96 0 96 -42 -9 c-24 -4 -122 -8 -218 -8 l-175 0 -3 107 -3
106 108 7 c59 5 208 5 331 1 l222 -6 0 80 0 80 -435 0 -435 0 0 -469z"/>
<path d="M6979 769 c205 -170 230 -194 218 -208 -199 -234 -447 -531 -447
-535 0 -4 56 -6 124 -6 l124 0 38 64 c22 35 97 130 168 211 141 160 157 170
200 112 19 -26 21 -44 24 -203 l3 -174 95 0 94 0 0 174 c0 160 2 175 21 200
25 31 57 33 93 5 15 -11 92 -101 172 -200 l146 -179 125 0 125 0 -44 53 c-24
28 -128 152 -230 274 l-187 221 216 179 c119 98 224 183 232 190 13 10 -17 12
-149 13 l-165 0 -13 -29 c-21 -47 -88 -117 -181 -188 -47 -37 -101 -80 -118
-97 l-33 -30 0 172 0 172 -105 0 -106 0 7 -97 c4 -63 2 -118 -5 -155 -7 -32
-14 -58 -16 -58 -2 0 -57 40 -122 88 -120 90 -171 139 -198 192 l-16 30 -160
0 -160 0 230 -191z"/>
<path d="M8560 495 l0 -465 105 0 105 0 2 193 3 192 275 0 275 0 3 -192 2
-193 100 0 100 0 0 465 0 465 -100 0 -100 0 -2 -177 -3 -178 -135 -7 c-74 -4
-199 -5 -277 -2 l-143 6 0 179 0 179 -105 0 -105 0 0 -465z"/>
<path d="M14840 490 l0 -470 109 0 110 0 36 54 c91 137 499 586 533 586 9 0
12 -78 12 -315 l0 -315 95 0 95 0 0 465 0 465 -114 0 -113 0 -49 -62 c-84
-108 -183 -217 -349 -386 l-160 -164 -7 39 c-4 21 -7 158 -7 306 l-1 267 -95
0 -95 0 0 -470z"/>
</g>
</svg>
